<?xml version="1.0" encoding="UTF-8" standalone="no" ?>
<!DOCTYPE svg PUBLIC "-//W3C//DTD SVG 1.1//EN" "http://www.w3.org/Graphics/SVG/1.1/DTD/svg11.dtd">
<svg xmlns="http://www.w3.org/2000/svg" xmlns:xlink="http://www.w3.org/1999/xlink" version="1.1" width="1080" height="1080" viewBox="0 0 1080 1080" xml:space="preserve">
<desc>Created with Fabric.js 5.2.4</desc>
<defs>
</defs>
<rect x="0" y="0" width="100%" height="100%" fill="transparent"></rect>
<g transform="matrix(1 0 0 1 540 540)" id="e224a2d2-93c2-489e-985c-b99678f80ce1"  >
<rect style="stroke: none; stroke-width: 1; stroke-dasharray: none; stroke-linecap: butt; stroke-dashoffset: 0; stroke-linejoin: miter; stroke-miterlimit: 4; fill: rgb(255,255,255); fill-rule: nonzero; opacity: 1; visibility: hidden;" vector-effect="non-scaling-stroke"  x="-540" y="-540" rx="0" ry="0" width="1080" height="1080" />
</g>
<g transform="matrix(1 0 0 1 540 540)" id="a145fd1d-a532-411c-8076-cdee13610dbe"  >
</g>
<g transform="matrix(0 -1 1 0 133.17 620.86)" id="bab408ea-9bd1-4b22-bc79-2239268bba91"  >
<path style="stroke: rgb(0,0,0); stroke-width: 0; stroke-dasharray: none; stroke-linecap: butt; stroke-dashoffset: 0; stroke-linejoin: miter; stroke-miterlimit: 4; fill: rgb(128,177,183); fill-rule: nonzero; opacity: 1;" vector-effect="non-scaling-stroke"  transform=" translate(-720, -147.63)" d="M 0 96 L 60 133.3 C 120 171 240 245 360 277.3 C 480 309 600 299 720 245.3 C 840 192 960 96 1080 96 C 1200 96 1320 192 1380 240 L 1440 288 L 1440 0 L 1380 0 C 1320 0 1200 0 1080 0 C 960 0 840 0 720 0 C 600 0 480 0 360 0 C 240 0 120 0 60 0 L 0 0 Z" stroke-linecap="round" />
</g>
</svg>